#!OML:ASF F:\VICON\USERDATA\INSTALL\rory3\rory3.ASF
:FULLY-SPECIFIED
:DEGREES
226
root -0.771109 18.7009 6.12674 -177.9 3.01556 176.436
lowerback 13.3141 1.71909 1.15831
upperback 3.4008 2.81651 0.179093
thorax -3.83408 1.54393 -0.935298
lowerneck -10.5462 0.296792 -6.88459
upperneck 22.7893 -0.000489457 3.04786
head 8.84221 -0.678692 2.13542
rclavicle 3.63776e-014 -1.27222e-014
rhumerus -21.7335 6.28523 -86.5115
rradius 38.5798
rwrist 7.4769
rhand -23.5237 3.64019
rfingers 7.12502
rthumb 2.93738 -26.3193
lclavicle 3.63776e-014 -1.27222e-014
lhumerus -37.8071 28.3948 65.7149
lradius 19.292
lwrist -10.3669
lhand -21.1443 25.7144
lfingers 7.12502
lthumb 5.23501 55.6298
rfemur -9.34391 15.847 20.1829
rtibia 28.6275
rfoot -22.1851 -1.84656
rtoes 3.03604
lfemur -56.354 17.0366 -26.6011
ltibia 88.5603
lfoot -20.8935 -4.84381
ltoes -11.4102
227
root -0.787745 18.6967 6.09443 -177.846 2.90502 176.494
lowerback 13.3511 1.71803 1.13281
upperback 3.41307 2.8135 0.147745
thorax -3.84102 1.54376 -0.954473
lowerneck -10.5928 0.244238 -6.92617
upperneck 22.6863 -0.0726188 3.17529
head 8.81894 -0.693632 2.17846
rclavicle 3.77691e-015 -2.14687e-014
rhumerus -21.7563 6.28567 -86.6619
rradius 38.9197
rwrist 7.20712
rhand -23.5317 3.63608
rfingers 7.12502
rthumb 2.92967 -26.3235
lclavicle 3.77691e-015 -2.14687e-014
lhumerus -37.5957 28.1191 65.9454
lradius 19.5434
lwrist -10.0866
lhand -21.1795 25.4772
lfingers 7.12502
lthumb 5.20102 55.3934
rfemur -9.26252 15.7714 20.2434
rtibia 28.5792
rfoot -22.1006 -2.07162
rtoes 2.91337
lfemur -56.3195 16.7784 -26.6077
ltibia 88.65
lfoot -21.1311 -4.52689
ltoes -12.1103
228
root -0.806053 18.6958 6.05804 -177.86 2.77522 176.555
lowerback 13.3953 1.69747 1.09219
upperback 3.48407 2.79172 0.157789
thorax -3.79356 1.53841 -0.917805
lowerneck -10.6083 0.167921 -7.09151
upperneck 22.4767 -0.156592 3.35815
head 8.75439 -0.713382 2.25919
rclavicle 4.77083e-014 1.27222e-014
rhumerus -21.7192 6.41707 -86.7479
rradius 39.2342
rwrist 6.90918
rhand -23.3324 3.49348
rfingers 7.12502
rthumb 3.12207 -26.4634
lclavicle 4.77083e-014 1.27222e-014
lhumerus -37.2942 27.8034 66.3056
lradius 19.8293
lwrist -9.6847
lhand -21.1817 25.6978
lfingers 7.12502
lthumb 5.19896 55.6141
rfemur -9.0752 15.8412 20.3286
rtibia 28.5445
rfoot -22.1458 -2.35336
rtoes 3.00952
lfemur -56.204 16.5368 -26.6115
ltibia 88.725
lfoot -21.3498 -4.33198
ltoes -12.6198
229
root -0.825734 18.692 6.01862 -177.872 2.6832 176.643
lowerback 13.4623 1.72547 1.11857
upperback 3.51304 2.83863 0.15169
thorax -3.79714 1.56397 -0.948747
lowerneck -10.5415 0.0613756 -7.21968
upperneck 22.2587 -0.30101 3.53828
head 8.67565 -0.761045 2.32569
rclavicle -6.55989e-015 1.74931e-014
rhumerus -21.7007 6.62709 -86.8354
rradius 39.5148
rwrist 6.50051
rhand -23.3159 3.10742
rfingers 7.12502
rthumb 3.13803 -26.8492
lclavicle -6.55989e-015 1.74931e-014
lhumerus -36.9327 27.0976 66.8568
lradius 20.1807
lwrist -9.09633
lhand -21.1915 25.5024
lfingers 7.12502
lthumb 5.18949 55.4188
rfemur -8.8652 16.0794 20.4342
rtibia 28.5383
rfoot -22.2988 -2.50448
rtoes 3.76548
lfemur -56.1079 16.366 -26.584
ltibia 88.8391
lfoot -21.5105 -4.19816
ltoes -12.2617
230
root -0.841162 18.6775 5.98551 -177.781 2.64666 176.751
lowerback 13.5474 1.789 1.11277
upperback 3.45653 2.91798 0.129721
thorax -3.9 1.59992 -0.986559
lowerneck -10.5875 0.0279037 -7.23445
upperneck 22.2439 -0.358774 3.64824
head 8.68212 -0.774649 2.36007
rclavicle -2.5842e-015 7.15625e-015
rhumerus -21.7629 6.63575 -86.9716
rradius 39.7545
rwrist 6.42618
rhand -23.3416 3.09473
rfingers 7.12502
rthumb 3.1132 -26.8623
lclavicle -2.5842e-015 7.15625e-015
lhumerus -36.6215 26.3629 67.3425
lradius 20.5666
lwrist -8.55164
lhand -20.7044 25.2207
lfingers 7.12502
lthumb 5.65977 55.1251
rfemur -8.8002 16.552 20.5662
rtibia 28.5329
rfoot -22.485 -2.84004
rtoes 4.37759
lfemur -56.233 16.2749 -26.5518
ltibia 89.0176
lfoot -21.5781 -4.00573
ltoes -12.1216
231
root -0.858151 18.6636 5.95089 -177.699 2.65153 176.82
lowerback 13.5594 1.84145 1.02273
upperback 3.4594 2.97562 0.124613
thorax -3.90634 1.62916 -0.951245
lowerneck -10.6828 0.0422389 -7.22351
upperneck 22.1872 -0.315561 3.64703
head 8.67799 -0.745801 2.36275
rclavicle 3.97569e-016 3.18055e-015
rhumerus -21.8116 6.8032 -87.1001
rradius 40.0934
rwrist 6.20155
rhand -23.4655 3.47262
rfingers 7.12502
rthumb 2.99355 -26.4861
lclavicle 3.97569e-016 3.18055e-015
lhumerus -36.3479 25.9223 67.7301
lradius 20.9451
lwrist -8.18368
lhand -20.4361 25.1476
lfingers 7.12502
lthumb 5.91882 55.0449
rfemur -8.72248 17.3176 20.6945
rtibia 28.5498
rfoot -22.6607 -3.59535
rtoes 4.45325
lfemur -56.3035 16.2008 -26.5478
ltibia 89.2105
lfoot -21.5938 -4.00097
ltoes -11.7002
232
root -0.878602 18.6542 5.91205 -177.69 2.64268 176.904
lowerback 13.5723 1.88293 1.00655
upperback 3.50702 3.03266 0.0834806
thorax -3.86074 1.66078 -0.993716
lowerneck -10.6261 0.0228906 -7.22269
upperneck 21.975 -0.340527 3.736
head 8.59642 -0.736272 2.38877
rclavicle -2.78299e-015 7.95139e-016
rhumerus -21.8365 7.01956 -87.2524
rradius 40.4773
rwrist 5.89557
rhand -23.6197 4.01686
rfingers 7.12502
rthumb 2.84459 -25.9439
lclavicle -2.78299e-015 7.95139e-016
lhumerus -36.0451 25.4835 68.0563
lradius 21.2848
lwrist -7.89949
lhand -20.4521 24.8945
lfingers 7.12502
lthumb 5.90334 54.7922
rfemur -8.58262 17.8009 20.8305
rtibia 28.5993
rfoot -22.5833 -4.12997
rtoes 4.89607
lfemur -56.2719 16.1351 -26.5186
ltibia 89.4297
lfoot -21.5681 -4.16719
ltoes -10.9743
233
root -0.896781 18.6478 5.87654 -177.67 2.57046 177.056
lowerback 13.6513 1.89742 1.04061
upperback 3.53187 3.06222 0.064545
thorax -3.8742 1.67753 -1.04046
lowerneck -10.4341 -0.073932 -7.38155
upperneck 21.6514 -0.481114 3.96501
head 8.45962 -0.778868 2.47561
rclavicle -1.96797e-014 1.66979e-014
rhumerus -21.8339 7.24446 -87.4096
rradius 40.8384
rwrist 5.74653
rhand -23.6139 3.92496
rfingers 7.12502
rthumb 2.85025 -26.0357
lclavicle -1.96797e-014 1.66979e-014
lhumerus -35.7002 25.0109 68.4146
lradius 21.5865
lwrist -7.47169
lhand -20.6293 24.6207
lfingers 7.12502
lthumb 5.73227 54.5232
rfemur -8.44201 17.9546 21.0081
rtibia 28.5829
rfoot -22.4675 -4.22592
rtoes 6.00604
lfemur -56.3045 16.0746 -26.4126
ltibia 89.6631
lfoot -21.5655 -4.19653
ltoes -10.9987
234
root -0.915448 18.6433 5.83758 -177.587 2.4793 177.218
lowerback 13.6549 1.90951 1.09602
upperback 3.52796 3.08562 0.0485813
thorax -3.87606 1.68886 -1.09235
lowerneck -10.5408 -0.10103 -7.31117
upperneck 21.6175 -0.506798 3.94828
head 8.46945 -0.780456 2.45602
rclavicle -1.23246e-014 -6.36111e-015
rhumerus -21.8301 7.53917 -87.5695
rradius 41.1501
rwrist 5.50319
rhand -23.3257 3.421
rfingers 7.12502
rthumb 3.12857 -26.5358
lclavicle -1.23246e-014 -6.36111e-015
lhumerus -35.3699 24.491 68.791
lradius 21.9355
lwrist -6.99154
lhand -20.7417 24.4576
lfingers 7.12502
lthumb 5.62375 54.363
rfemur -8.34148 17.9765 21.162
rtibia 28.5238
rfoot -22.5447 -4.24896
rtoes 6.65395
lfemur -56.3877 15.979 -26.3069
ltibia 89.8859
lfoot -21.6558 -4.05091
ltoes -11.7432
235
root -0.93843 18.636 5.79071 -177.536 2.46325 177.238
lowerback 13.5712 1.93941 1.06477
upperback 3.54471 3.11597 -0.0397492
thorax -3.80883 1.70496 -1.16742
lowerneck -10.6138 -0.0861313 -7.2523
upperneck 21.6047 -0.479244 3.93161
head 8.47677 -0.760394 2.44375
rclavicle 1.17283e-014 -3.18055e-015
rhumerus -21.7819 7.82976 -87.7767
rradius 41.3275
rwrist 5.23624
rhand -23.3406 3.23893
rfingers 7.12502
rthumb 3.11415 -26.7181
lclavicle 1.17283e-014 -3.18055e-015
lhumerus -35.0645 23.8034 69.1707
lradius 22.3405
lwrist -6.44694
lhand -20.8423 24.6929
lfingers 7.12502
lthumb 5.52659 54.6008
rfemur -8.21382 17.8505 21.136
rtibia 28.4672
rfoot -22.6446 -4.126
rtoes 6.90415
lfemur -56.3692 15.9346 -26.3455
ltibia 90.1082
lfoot -21.8382 -3.99509
ltoes -12.2592
